<svg xmlns="http://www.w3.org/2000/svg" viewBox="0 0 24 24"><path fill="currentColor" d="M20.305 8.482c-.491-1.105-1.105-2.046-1.923-2.864-.818-.818-1.76-1.432-2.864-1.923C14.414 3.205 13.268 3 12 3a9.57 9.57 0 00-2.414.327c-.777.205-1.472.532-2.168.9-.654.41-1.268.86-1.8 1.391a8.442 8.442 0 00-1.39 1.8c-.41.655-.696 1.391-.9 2.168A9.238 9.238 0 003 12c0 .818.123 1.636.327 2.414.205.777.532 1.472.9 2.168.41.654.86 1.268 1.391 1.8a8.442 8.442 0 001.8 1.39c.655.41 1.391.696 2.168.9A9.28 9.28 0 0012 21c.86 0 1.636-.123 2.414-.327.777-.205 1.472-.532 2.168-.9.654-.41 1.268-.86 1.8-1.391a8.442 8.442 0 001.39-1.8c.41-.655.696-1.391.9-2.168A9.28 9.28 0 0021 12c0-1.268-.205-2.414-.695-3.518zm-3.846 6.463l-1.268 1.269-3.068-3.069-3.068 3.069-1.269-1.269 3.069-3.068L7.786 8.81l1.269-1.268 3.068 3.068 3.068-3.068 1.268 1.268-3.068 3.068 3.068 3.068z"></path></svg>